<svg xmlns="http://www.w3.org/2000/svg" viewBox="0 0 64 18"><defs><style>.cls-1{fill:#b3b3b3;}</style></defs><title>logo</title><g id="comments"><path class="cls-1" d="M0,17.62V.41H2.81v14.8H10.1v2.41Z"/><path class="cls-1" d="M27.86,9a9.43,9.43,0,0,1-2.1,6.54,7.6,7.6,0,0,1-6,2.33,7.62,7.62,0,0,1-6-2.32A9.47,9.47,0,0,1,11.74,9q0-4.26,2.1-6.54a7.72,7.72,0,0,1,6-2.29,7.62,7.62,0,0,1,5.93,2.32A9.45,9.45,0,0,1,27.86,9ZM14.73,9A7.74,7.74,0,0,0,16,13.81a4.52,4.52,0,0,0,3.8,1.65,4.54,4.54,0,0,0,3.79-1.63A7.73,7.73,0,0,0,24.87,9a7.76,7.76,0,0,0-1.26-4.8,4.48,4.48,0,0,0-3.77-1.63A4.56,4.56,0,0,0,16,4.19,7.63,7.63,0,0,0,14.73,9Z"/><path class="cls-1" d="M38.49,8.29h6.33v8.64a18.94,18.94,0,0,1-3,.71,19.87,19.87,0,0,1-3.09.22,7.73,7.73,0,0,1-6-2.32A9.3,9.3,0,0,1,30.6,9,8.7,8.7,0,0,1,33,2.52,9,9,0,0,1,39.57.17a12.86,12.86,0,0,1,5.11,1l-1,2.35a9.88,9.88,0,0,0-4.19-1,5.66,5.66,0,0,0-4.36,1.73A6.72,6.72,0,0,0,33.54,9,7.09,7.09,0,0,0,35,13.84a5.26,5.26,0,0,0,4.15,1.64,13.45,13.45,0,0,0,2.92-.34V10.7H38.49Z"/><path class="cls-1" d="M64,9a9.43,9.43,0,0,1-2.1,6.54A7.6,7.6,0,0,1,56,17.86a7.61,7.61,0,0,1-6-2.32C48.57,14,47.88,11.81,47.88,9s.7-5,2.1-6.54A7.71,7.71,0,0,1,56,.14a7.62,7.62,0,0,1,5.94,2.32A9.45,9.45,0,0,1,64,9ZM50.87,9a7.68,7.68,0,0,0,1.28,4.82A4.51,4.51,0,0,0,56,15.46a4.52,4.52,0,0,0,3.78-1.63A7.66,7.66,0,0,0,61,9a7.76,7.76,0,0,0-1.26-4.8A4.5,4.5,0,0,0,56,2.56a4.58,4.58,0,0,0-3.82,1.63A7.69,7.69,0,0,0,50.87,9Z"/></g></svg>